<svg width="80" height="80" viewBox="0 0 80 80" fill="none" xmlns="http://www.w3.org/2000/svg">
<g clip-path="url(#clip0_23_4623)">
<path d="M68.4412 32.8333C68.4412 34.0033 69.3912 34.9507 70.5586 34.9507C71.7286 34.9507 72.6787 34.0033 72.6787 32.8333C72.6787 31.6647 71.7286 30.7158 70.5586 30.7158C69.3912 30.7158 68.4412 31.6647 68.4412 32.8333Z" fill="white"/>
<path d="M62.5151 58.8286C61.5786 58.8286 60.8211 59.5874 60.8211 60.5239C60.8211 61.4592 61.5786 62.2164 62.5151 62.2164C63.4517 62.2164 64.209 61.4591 64.209 60.5239C64.209 59.5874 63.4517 58.8286 62.5151 58.8286Z" fill="white"/>
<path d="M59.8059 64.9026C57.8866 64.9026 56.3312 66.4582 56.3312 68.3773C56.3312 70.2951 57.8867 71.8506 59.8059 71.8506C61.7251 71.8506 63.2806 70.2951 63.2806 68.3773C63.2808 66.4582 61.7251 64.9026 59.8059 64.9026Z" fill="white"/>
<path d="M21.4455 69.3289C22.8952 69.3289 24.0705 68.1536 24.0705 66.7039C24.0705 65.2541 22.8952 64.0789 21.4455 64.0789C19.9957 64.0789 18.8205 65.2541 18.8205 66.7039C18.8205 68.1536 19.9957 69.3289 21.4455 69.3289Z" fill="white"/>
<path d="M14.7539 56.1194C14.0073 56.1194 13.3994 56.7247 13.3994 57.4753C13.3994 58.2219 14.0075 58.8284 14.7539 58.8284C15.5033 58.8284 16.1086 58.2217 16.1086 57.4753C16.1084 56.7247 15.5031 56.1194 14.7539 56.1194Z" fill="white"/>
<path d="M8.57265 23.6037C9.55546 23.6037 10.3508 22.8068 10.3508 21.8241C10.3508 20.8427 9.55546 20.046 8.57265 20.046C7.58999 20.046 6.79453 20.8427 6.79453 21.8241C6.79453 22.8068 7.58999 23.6037 8.57265 23.6037Z" fill="white"/>
<path d="M25.9328 15.3051C27.2412 15.3051 28.3025 14.2437 28.3025 12.9324C28.3025 11.6254 27.2412 10.564 25.9328 10.564C24.6244 10.564 23.5628 11.6255 23.5628 12.9324C23.5628 14.2435 24.6244 15.3051 25.9328 15.3051Z" fill="white"/>
<path d="M70.4336 46.9738C62.9983 44.3352 61.5323 45.3355 57.9002 41.8933C57.0314 41.0722 57.0505 38.3793 61.8798 39.0144C64.3012 39.3335 65.9436 37.9979 65.9436 36.0922C65.9436 34.8218 64.4125 33.0558 62.1322 33.9327C58.8312 35.2032 56.6894 33.7618 56.2903 32.1546C55.7825 30.1227 56.3581 27.8058 64.855 23.5614C75.2684 18.3533 69.2961 8.8766 61.1169 17.8022C57.4928 21.7547 55.7825 23.3904 53.3694 24.6608C51.2031 25.7996 48.6053 24.6186 50.5733 21.9938C51.3361 20.9771 52.6311 20.1927 52.9866 18.9452C53.4942 17.1671 51.9984 15.5152 50.7009 15.5152C49.4034 15.5152 47.78 16.2768 47.2723 18.1824C46.5095 21.676 44.5658 21.5011 43.6483 20.4925C41.8919 18.5679 42.5244 16.3229 42.8258 12.8482C43.1814 8.76676 45.5973 -0.658552 38.1837 0.0364483C34.6087 0.371761 33.5526 3.74192 34.7091 9.76567C36.1478 17.2432 33.9708 22.4621 31.647 23.5168C28.8536 24.7871 27.4367 24.3052 21.4862 20.2158C18.3237 18.0399 14.8325 19.9497 14.1187 22.5014C13.4889 24.7491 15.2644 27.4652 17.9301 28.3446C22.0373 29.7005 23.8589 30.0154 25.7645 31.0524C27.6267 32.0691 27.8602 34.5339 26.0006 36.7639C24.1384 38.9955 19.328 37.1496 12.2156 36.6418C-0.0789125 35.765 2.68452 49.3652 14.2462 45.3654C20.8509 43.0783 23.6442 43.5858 24.7898 44.9839C26.3698 46.9127 25.2839 49.52 22.2055 51.3769C12.3839 57.3057 23.3945 64.6704 27.4583 56.4574C29.1576 53.026 31.1122 51.9714 33.0451 52.7314C34.6223 53.3532 36.642 58.8571 34.3591 66.2814C32.3258 72.8864 32.4642 80 37.2391 80C41.702 80 42.3997 73.3533 41.6397 66.1133C41.3572 63.4041 41.5662 59.206 43.6728 58.1527C45.3669 57.3057 48.0136 56.3624 49.8108 60.0991C51.4639 63.5289 55.0201 63.0199 56.4181 61.1157C57.4387 59.7218 57.9573 56.6297 53.8936 55.0268C49.0506 53.1129 50.8287 47.9049 54.5125 48.4138C58.5791 48.9744 61.3669 50.4716 66.1991 54.5964C72.942 60.3489 81.5991 50.9358 70.4336 46.9738Z" fill="white"/>
</g>
<defs>
<clipPath id="clip0_23_4623">
<rect width="80" height="80" fill="white"/>
</clipPath>
</defs>
</svg>
