<svg width="68" height="68" viewBox="0 0 68 68" fill="none" xmlns="http://www.w3.org/2000/svg">
<g clip-path="url(#clip0_23_4640)">
<path fill-rule="evenodd" clip-rule="evenodd" d="M13.8925 36.9219C18.7711 34.8794 24.2643 36.3811 28.9755 41.0379L29.1312 41.2091C33.2627 46.3949 34.426 51.0945 32.5975 55.1716C28.0341 65.3411 6.36466 66.8155 3.90982 66.9478L0 67.1656L2.19417 63.9133C2.2292 63.8588 5.91338 58.2917 5.91338 48.7836C5.91338 43.7611 9.19296 38.8826 13.8925 36.9219ZM61.2248 0.816412C63.17 0.777489 64.7651 1.35715 66.01 2.56706C67.4494 4.00653 68.068 5.67937 67.9941 7.54675C67.6051 16.8059 50.4096 33.7679 37.2991 45.3613C36.4393 43.0659 35.0426 40.5372 32.8601 37.8139L32.5489 37.4638C29.7128 34.6239 26.5577 32.6787 23.2548 31.745C33.8327 19.7626 51.7323 1.20157 61.2248 0.816412Z" fill="white"/>
</g>
<defs>
<clipPath id="clip0_23_4640">
<rect width="68" height="68" fill="white"/>
</clipPath>
</defs>
</svg>
