<svg width="81" height="81" viewBox="0 0 81 81" fill="none" xmlns="http://www.w3.org/2000/svg">
<g clip-path="url(#clip0_23_4633)">
<mask id="mask0_23_4633" style="mask-type:luminance" maskUnits="userSpaceOnUse" x="0" y="0" width="81" height="81">
<path d="M81 0H0V81H81V0Z" fill="white"/>
</mask>
<g mask="url(#mask0_23_4633)">
<path fill-rule="evenodd" clip-rule="evenodd" d="M35.2434 8.24948C34.0038 12.2851 31.4575 21.113 30.0346 29.81C33.7274 30.4061 37.3346 30.7871 40.5 30.7871C43.6654 30.7871 47.2726 30.4061 50.9655 29.81C49.5426 21.113 46.9962 12.2851 45.7566 8.24948C44.0468 7.9731 42.2911 7.82922 40.5 7.82922C38.7089 7.82922 36.9532 7.9731 35.2434 8.24948ZM51.7512 9.81764C53.1124 14.5294 54.9983 21.6954 56.1762 28.8474C61.2606 27.8 66.0579 26.5216 69.5419 25.5187C65.8078 18.2959 59.4581 12.6448 51.7512 9.81764ZM71.5935 30.4402C67.9124 31.5118 62.5803 32.9511 56.9005 34.1067C57.1371 36.3028 57.2768 38.4608 57.2768 40.5C57.2768 43.4754 56.9791 46.7137 56.5127 49.9696C63.3116 48.5521 69.548 46.7404 72.7505 45.7566C73.0269 44.0468 73.1707 42.2911 73.1707 40.5C73.1707 36.9866 72.6172 33.6066 71.5935 30.4402ZM71.1825 51.7512C67.2185 52.896 61.5229 54.4114 55.564 55.564C54.4114 61.5229 52.896 67.2185 51.7512 71.1825C60.7426 67.8841 67.8841 60.7426 71.1825 51.7512ZM45.7569 72.7505C46.7404 69.548 48.5521 63.3116 49.9696 56.5127C46.7137 56.9791 43.4754 57.2768 40.5 57.2768C37.5246 57.2768 34.2863 56.9791 31.0305 56.5127C32.448 63.3116 34.2596 69.548 35.2434 72.7505C36.9532 73.0269 38.7089 73.1707 40.5 73.1707C42.2911 73.1707 44.0468 73.0269 45.7569 72.7505ZM29.2487 71.1825C28.1039 67.2185 26.5886 61.5229 25.436 55.564C19.4771 54.4114 13.7813 52.896 9.81757 51.7512C13.116 60.7426 20.2573 67.8841 29.2487 71.1825ZM8.24948 45.7566C11.4519 46.7404 17.6884 48.5521 24.4872 49.9696C24.0209 46.7137 23.7231 43.4754 23.7231 40.5C23.7231 38.4608 23.8629 36.3028 24.0994 34.1067C18.4197 32.9511 13.0875 31.5118 9.40653 30.4402C8.38293 33.6066 7.82922 36.9866 7.82922 40.5C7.82922 42.2911 7.9731 44.0468 8.24948 45.7566ZM11.4583 25.5187C14.9422 26.5216 19.7392 27.8 24.8239 28.8474C26.0015 21.6954 27.8877 14.5294 29.2486 9.81764C21.542 12.6448 15.1922 18.2959 11.4583 25.5187ZM29.3262 35.0622C29.1309 36.9711 29.0211 38.8017 29.0211 40.5C29.0211 43.6722 29.4038 47.2905 30.0032 50.9969C33.7094 51.5963 37.3278 51.9791 40.5 51.9791C43.6722 51.9791 47.2905 51.5963 50.9969 50.9969C51.5963 47.2905 51.9791 43.6722 51.9791 40.5C51.9791 38.8017 51.869 36.9711 51.6739 35.0622C47.8494 35.6748 43.9925 36.0852 40.5 36.0852C37.0075 36.0852 33.1505 35.6748 29.3262 35.0622ZM32.6455 3.34521C35.182 2.81146 37.8098 2.53125 40.5 2.53125C43.1902 2.53125 45.818 2.81146 48.3546 3.34521C60.7865 5.96116 70.9698 14.6508 75.6675 26.1621C77.4745 30.5895 78.4688 35.4318 78.4688 40.5C78.4688 43.1902 78.1886 45.818 77.6547 48.3546C74.5683 63.0234 63.0234 74.5683 48.3546 77.6547C45.818 78.1886 43.1902 78.4688 40.5 78.4688C37.8098 78.4688 35.182 78.1886 32.6455 77.6547C17.9767 74.5683 6.43181 63.0234 3.34521 48.3546C2.81146 45.818 2.53125 43.1902 2.53125 40.5C2.53125 35.4281 3.52718 30.582 5.33665 26.1517C10.0362 14.6456 20.2171 5.96039 32.6455 3.34521Z" fill="white"/>
</g>
</g>
<defs>
<clipPath id="clip0_23_4633">
<rect width="81" height="81" fill="white"/>
</clipPath>
</defs>
</svg>
